<svg width="11" height="10" viewBox="0 0 11 10" fill="none" xmlns="http://www.w3.org/2000/svg">
<path d="M3.48006 9.57599C3.20006 9.57599 2.93206 9.49599 2.67606 9.33599C2.42006 9.18399 2.21206 8.98399 2.05206 8.73599C1.89206 8.48799 1.81206 8.23199 1.81206 7.96799C1.81206 7.64799 1.90006 7.34399 2.07606 7.05599C2.25206 6.75999 2.47206 6.50799 2.73606 6.29999C3.00806 6.08399 3.27606 5.92799 3.54006 5.83199C3.26806 5.91199 2.98806 5.95199 2.70006 5.95199C2.33206 5.95199 1.98806 5.88399 1.66806 5.74799C1.34806 5.61199 1.09206 5.41999 0.900061 5.17199C0.708061 4.91599 0.612061 4.61599 0.612061 4.27199C0.612061 3.92799 0.684061 3.62799 0.828061 3.37199C0.980061 3.10799 1.18006 2.90399 1.42806 2.75999C1.67606 2.61599 1.94806 2.54399 2.24406 2.54399C2.59606 2.54399 2.95606 2.64799 3.32406 2.85599C3.70006 3.05599 4.01206 3.31199 4.26006 3.62399C4.12406 3.42399 4.00406 3.17999 3.90006 2.89199C3.80406 2.59599 3.75606 2.28799 3.75606 1.96799C3.75606 1.64799 3.82406 1.35999 3.96006 1.10399C4.10406 0.83999 4.30006 0.63199 4.54806 0.47999C4.80406 0.31999 5.10006 0.23999 5.43606 0.23999C5.93206 0.23999 6.33206 0.40799 6.63606 0.74399C6.94006 1.07199 7.09206 1.47999 7.09206 1.96799C7.09206 2.26399 7.04806 2.55999 6.96006 2.85599C6.87206 3.14399 6.74806 3.39999 6.58806 3.62399L6.63606 3.56399C6.89206 3.24399 7.19206 2.99599 7.53606 2.81999C7.88806 2.63599 8.25206 2.54399 8.62806 2.54399C8.91606 2.54399 9.18406 2.61599 9.43206 2.75999C9.68006 2.89599 9.88006 3.09199 10.0321 3.34799C10.1841 3.60399 10.2601 3.90799 10.2601 4.25999C10.2601 4.61199 10.1561 4.91599 9.94806 5.17199C9.74806 5.42799 9.48806 5.62399 9.16806 5.75999C8.84806 5.88799 8.51206 5.95199 8.16006 5.95199C7.97606 5.94399 7.81206 5.93199 7.66806 5.91599C7.52406 5.89199 7.40406 5.86399 7.30806 5.83199C7.58806 5.92799 7.86006 6.08399 8.12406 6.29999C8.39606 6.50799 8.62006 6.75599 8.79606 7.04399C8.97206 7.33199 9.06006 7.64799 9.06006 7.99199C9.06006 8.23199 8.98006 8.47599 8.82006 8.72399C8.66806 8.96399 8.46406 9.16399 8.20806 9.32399C7.95206 9.49199 7.67606 9.57599 7.38006 9.57599C6.98806 9.57599 6.64406 9.45199 6.34806 9.20399C6.06006 8.96399 5.83606 8.63999 5.67606 8.23199C5.59606 8.02399 5.53606 7.83599 5.49606 7.66799C5.45606 7.49199 5.43606 7.33599 5.43606 7.19999C5.34806 7.93599 5.13206 8.51599 4.78806 8.93999C4.45206 9.36399 4.01606 9.57599 3.48006 9.57599ZM4.76406 3.81599L5.14806 3.67199C5.18806 3.58399 5.21206 3.49999 5.22006 3.41999C5.23606 3.33999 5.24406 3.27199 5.24406 3.21599C5.24406 3.13599 5.22806 3.03599 5.19606 2.91599C5.16406 2.78799 5.14806 2.69599 5.14806 2.63999C5.14806 2.52799 5.17206 2.43199 5.22006 2.35199C5.26806 2.27199 5.34006 2.23199 5.43606 2.23199C5.53206 2.23199 5.60406 2.27199 5.65206 2.35199C5.70006 2.43199 5.72406 2.52799 5.72406 2.63999C5.72406 2.71999 5.70406 2.81599 5.66406 2.92799C5.62406 3.03999 5.60406 3.13599 5.60406 3.21599C5.60406 3.35199 5.63606 3.50399 5.70006 3.67199L6.08406 3.81599C6.24406 3.65599 6.37206 3.44399 6.46806 3.17999C6.56406 2.90799 6.61206 2.63199 6.61206 2.35199C6.61206 1.97599 6.50406 1.67599 6.28806 1.45199C6.07206 1.21999 5.78806 1.10399 5.43606 1.10399C5.09206 1.10399 4.80406 1.21999 4.57206 1.45199C4.34806 1.67599 4.23606 1.97599 4.23606 2.35199C4.23606 2.63199 4.28406 2.90799 4.38006 3.17999C4.47606 3.44399 4.60406 3.65599 4.76406 3.81599ZM3.01206 5.66399C3.34006 5.66399 3.62006 5.59999 3.85206 5.47199V5.06399C3.81206 4.99999 3.73206 4.94399 3.61206 4.89599C3.49206 4.84799 3.33206 4.81599 3.13206 4.79999C2.74006 4.75999 2.54406 4.63999 2.54406 4.43999C2.54406 4.35199 2.57206 4.28799 2.62806 4.24799C2.69206 4.20799 2.76006 4.18799 2.83206 4.18799C2.88006 4.18799 2.94406 4.20399 3.02406 4.23599C3.11206 4.25999 3.20806 4.30399 3.31206 4.36799C3.52006 4.49599 3.74006 4.55999 3.97206 4.55999H4.02006L4.26006 4.22399C4.18006 4.05599 4.05206 3.89599 3.87606 3.74399C3.70006 3.58399 3.50006 3.45199 3.27606 3.34799C3.05206 3.24399 2.82006 3.19199 2.58006 3.19199C2.24406 3.19199 1.96806 3.31199 1.75206 3.55199C1.54406 3.79199 1.44006 4.07999 1.44006 4.41599C1.44006 4.77599 1.58406 5.07599 1.87206 5.31599C2.16806 5.54799 2.54806 5.66399 3.01206 5.66399ZM7.84806 5.66399C8.32006 5.66399 8.70006 5.54799 8.98806 5.31599C9.28406 5.07599 9.43206 4.77599 9.43206 4.41599C9.43206 4.06399 9.32006 3.77199 9.09606 3.53999C8.88006 3.30799 8.60806 3.19199 8.28006 3.19199C8.04006 3.19199 7.80406 3.24399 7.57206 3.34799C7.34006 3.45199 7.13606 3.58399 6.96006 3.74399C6.79206 3.90399 6.66806 4.06399 6.58806 4.22399L6.85206 4.55999H6.90006L6.99606 4.54799C7.09206 4.53199 7.18806 4.51199 7.28406 4.48799C7.38006 4.46399 7.47606 4.42399 7.57206 4.36799C7.76406 4.24799 7.91206 4.18799 8.01606 4.18799C8.20806 4.18799 8.30406 4.27599 8.30406 4.45199C8.30406 4.65199 8.14806 4.75999 7.83606 4.77599C7.51606 4.79199 7.24406 4.88799 7.02006 5.06399L6.99606 5.47199C7.22806 5.59999 7.51206 5.66399 7.84806 5.66399ZM3.67206 8.80799C3.94406 8.80799 4.18406 8.70799 4.39206 8.50799C4.60806 8.30799 4.77606 8.06799 4.89606 7.78799C5.02406 7.49999 5.08806 7.23199 5.08806 6.98399V6.86399L5.07606 6.76799L4.69206 6.64799C4.41206 6.81599 4.23606 7.03599 4.16406 7.30799C4.09206 7.57999 3.96006 7.71599 3.76806 7.71599C3.69606 7.71599 3.63206 7.68799 3.57606 7.63199C3.52806 7.56799 3.50406 7.50399 3.50406 7.43999C3.50406 7.27999 3.60806 7.12799 3.81606 6.98399C4.02406 6.83999 4.16406 6.62399 4.23606 6.33599L4.02006 5.99999C3.81206 6.03999 3.58406 6.13599 3.33606 6.28799C3.08806 6.43999 2.87606 6.63199 2.70006 6.86399C2.53206 7.09599 2.44806 7.35199 2.44806 7.63199C2.44806 7.83999 2.50806 8.03599 2.62806 8.21999C2.74806 8.39599 2.90006 8.53999 3.08406 8.65199C3.27606 8.75599 3.47206 8.80799 3.67206 8.80799ZM7.12806 8.80799C7.33606 8.80799 7.53206 8.75199 7.71606 8.63999C7.90806 8.52799 8.06006 8.38399 8.17206 8.20799C8.29206 8.02399 8.35206 7.83199 8.35206 7.63199C8.35206 7.35199 8.26406 7.09999 8.08806 6.87599C7.92006 6.64399 7.71206 6.45199 7.46406 6.29999C7.22406 6.14799 6.99606 6.04799 6.78006 5.99999L6.56406 6.33599C6.59606 6.47199 6.64406 6.59199 6.70806 6.69599C6.78006 6.79999 6.86806 6.89599 6.97206 6.98399C7.18006 7.15199 7.28406 7.31199 7.28406 7.46399C7.28406 7.52799 7.25606 7.58799 7.20006 7.64399C7.15206 7.69199 7.09606 7.71599 7.03206 7.71599C6.85606 7.71599 6.72006 7.57999 6.62406 7.30799C6.53606 7.05999 6.36406 6.83999 6.10806 6.64799L5.72406 6.76799L5.71206 6.86399V6.98399C5.71206 7.12799 5.74006 7.29999 5.79606 7.49999C5.86006 7.69199 5.94406 7.88399 6.04806 8.07599C6.16006 8.25999 6.28806 8.41199 6.43206 8.53199C6.65606 8.71599 6.88806 8.80799 7.12806 8.80799Z" fill="#F05FC5"/>
</svg>
